<?xml version="1.0" encoding="utf-8"?>
<!-- Generator: Adobe Illustrator 24.0.2, SVG Export Plug-In . SVG Version: 6.00 Build 0)  -->
<svg version="1.1" id="Capa_1" xmlns="http://www.w3.org/2000/svg" xmlns:xlink="http://www.w3.org/1999/xlink" x="0px" y="0px"
	 viewBox="0 0 139 55" style="enable-background:new 0 0 139 55;" xml:space="preserve">
<style type="text/css">
	.st0{fill-rule:evenodd;clip-rule:evenodd;fill:#1A1A1A;}
	.st1{fill-rule:evenodd;clip-rule:evenodd;fill:#BFDA9F;}
	.st2{fill-rule:evenodd;clip-rule:evenodd;fill:#8B7FC2;}
	.st3{opacity:0.964;fill-rule:evenodd;clip-rule:evenodd;fill:#FDFEFD;enable-background:new    ;}
	.st4{opacity:0.918;fill-rule:evenodd;clip-rule:evenodd;fill:#FDFEFD;enable-background:new    ;}
	.st5{opacity:0.915;fill-rule:evenodd;clip-rule:evenodd;fill:#FDFEFD;enable-background:new    ;}
	.st6{opacity:0.913;fill-rule:evenodd;clip-rule:evenodd;fill:#FDFEFD;enable-background:new    ;}
	.st7{opacity:0.871;fill-rule:evenodd;clip-rule:evenodd;fill:#FDFEFD;enable-background:new    ;}
	.st8{opacity:0.838;fill-rule:evenodd;clip-rule:evenodd;fill:#FDFEFD;enable-background:new    ;}
	.st9{opacity:0.857;fill-rule:evenodd;clip-rule:evenodd;fill:#FDFEFD;enable-background:new    ;}
	.st10{opacity:0.952;fill-rule:evenodd;clip-rule:evenodd;fill:#FDFEFD;enable-background:new    ;}
	.st11{fill-rule:evenodd;clip-rule:evenodd;fill:#A69CCE;}
	.st12{fill-rule:evenodd;clip-rule:evenodd;fill:#8A7EC0;}
	.st13{fill-rule:evenodd;clip-rule:evenodd;fill:#A8A0CE;}
	.st14{fill-rule:evenodd;clip-rule:evenodd;fill:#C6C0E1;}
	.st15{fill-rule:evenodd;clip-rule:evenodd;fill:#131314;}
	.st16{fill-rule:evenodd;clip-rule:evenodd;fill:#ADA4D4;}
	.st17{fill-rule:evenodd;clip-rule:evenodd;fill:#0A0A0A;}
	.st18{fill-rule:evenodd;clip-rule:evenodd;fill:#575561;}
	.st19{fill-rule:evenodd;clip-rule:evenodd;fill:#9389C1;}
	.st20{fill-rule:evenodd;clip-rule:evenodd;fill:#AEA8CD;}
	.st21{fill-rule:evenodd;clip-rule:evenodd;fill:#A4A4A6;}
	.st22{fill-rule:evenodd;clip-rule:evenodd;fill:#212025;}
	.st23{fill-rule:evenodd;clip-rule:evenodd;fill:#79758C;}
	.st24{fill-rule:evenodd;clip-rule:evenodd;fill:#17161D;}
	.st25{fill-rule:evenodd;clip-rule:evenodd;fill:#242230;}
	.st26{fill-rule:evenodd;clip-rule:evenodd;fill:#8079A3;}
	.st27{fill-rule:evenodd;clip-rule:evenodd;fill:#96959A;}
	.st28{fill-rule:evenodd;clip-rule:evenodd;fill:#D0CDDE;}
	.st29{fill-rule:evenodd;clip-rule:evenodd;fill:#3A3A3D;}
	.st30{fill-rule:evenodd;clip-rule:evenodd;fill:#666378;}
	.st31{fill-rule:evenodd;clip-rule:evenodd;fill:#19191C;}
	.st32{fill-rule:evenodd;clip-rule:evenodd;fill:#4A4951;}
	.st33{fill-rule:evenodd;clip-rule:evenodd;fill:#C6C0DF;}
	.st34{fill-rule:evenodd;clip-rule:evenodd;fill:#716F7E;}
	.st35{fill-rule:evenodd;clip-rule:evenodd;fill:#C0BADD;}
	.st36{fill-rule:evenodd;clip-rule:evenodd;fill:#5F5A6F;}
	.st37{fill-rule:evenodd;clip-rule:evenodd;fill:#B0A6D7;}
	.st38{fill-rule:evenodd;clip-rule:evenodd;fill:#9D92CC;}
	.st39{fill-rule:evenodd;clip-rule:evenodd;fill:#998EC7;}
</style>
<g>
	<path class="st0" d="M18.1,3.9C27.7,3,34,7.1,37.1,16.1c1.3,9.8-2.7,16.3-12.1,19.3c-9.7,1.2-16.2-2.9-19.3-12.1
		C4.6,13.3,8.7,6.9,18.1,3.9z"/>
</g>
<g>
	<path class="st1" d="M35.5,18.5c-1.5-0.9-2.9-0.8-4.4,0.2c-0.9,0.6-1.6,1.2-2.4,1.9c0.3-1,0.5-2,0.7-3c0.1-2.2-0.1-4.3-0.4-6.5
		c-0.1-2.5-1.3-3.9-3.7-3.9c-0.6,1-1.1,2-1.2,3.2c-0.4,0.6-0.7,1.1-1,1.7c-0.3,2.8-0.1,5.5,0.5,8.2c0,0.3-0.1,0.5-0.4,0.7
		c-0.5-0.4-0.9-0.7-1.3-1c-0.4-0.7-1-1.2-1.7-1.5c-4.3-0.8-7.9,0.3-10.9,3.2c-0.1,2.2,0.9,3.5,3,3.7c0.3,0.8,0.9,1.1,1.7,1
		c0.8,0.6,1.7,1,2.8,1c0.5-0.1,0.9-0.1,1.3-0.2c0.2-0.1,0.3-0.3,0.4-0.5c0.1,0,0.2,0,0.4,0s0.2,0,0.4,0c-1.1,1.6-2.1,3.3-2.9,5.1
		c-0.2,0.5-0.6,0.8-1.2,1c-5.5-2.6-8.3-7-8.3-13.1c0.3-7.4,4-12.2,11.2-14.3c8.2-1.1,13.9,2.2,17.2,9.7
		C35.8,16.3,35.9,17.4,35.5,18.5z"/>
</g>
<g>
	<path class="st2" d="M29,11c0.3,2.2,0.4,4.3,0.4,6.5c-1.7,0.2-3.4,0.2-5.1,0c0,0.6,0,1.1,0,1.7c-0.4-1.6-0.5-3.3-0.2-5.1
		c0.9-1.1,1.5-2.3,1.5-3.7C26,10,26.5,9.8,27,9.7C27.7,10,28.4,10.5,29,11z"/>
</g>
<g>
	<path class="st3" d="M60.7,14.8c0.7,0,1.3,0,2,0c-0.1,1.2,0,2.5,0.2,3.7c1-0.7,2-0.9,3.2-0.5c0.4,0.3,0.7,0.7,0.9,1.2
		c0.2,1.8,0.2,3.6,0.2,5.4c-0.7,0-1.3,0-2,0c0.1-1.3,0-2.8-0.2-4.1c-0.7-1.3-1.3-1.3-2,0c-0.2,1.3-0.2,2.7-0.2,4.1c-0.7,0-1.3,0-2,0
		C60.7,21.4,60.7,18.1,60.7,14.8z"/>
</g>
<g>
	<path class="st4" d="M68.5,14.8c0.7,0,1.3,0,2,0c-0.1,1.2,0,2.5,0.2,3.7c1.1-0.7,2.3-0.9,3.6-0.5c1.5,1.6,1.8,3.5,0.9,5.6
		c-0.7,0.8-1.6,1.2-2.8,1c-0.8,0.1-1.5-0.2-2-0.7c-0.6,0.6-1.3,0.8-2.2,0.5C68.5,21.3,68.7,18.1,68.5,14.8z M71.6,19.5
		c1.1,0.1,1.8,0.6,2,1.7c-1.1,2.2-2.1,2.2-3,0C70.7,20.5,71,19.9,71.6,19.5z"/>
</g>
<g>
	<path class="st5" d="M101.2,14.8c0.7,0,1.3,0,2,0c-0.1,3.3,0,6.5,0.4,9.7c-0.4,0.1-0.8,0.1-1.2,0.2c-1.5-0.1-3-0.2-4.6-0.2
		c-1.5-1.6-1.8-3.5-0.9-5.6c1.2-1.1,2.6-1.3,4.1-0.7C101.2,17.1,101.3,15.9,101.2,14.8z M99.2,19.5c1.8,0.1,2.3,1,1.7,2.8
		c-1.2,0.9-2,0.5-2.4-1C98.8,20.7,99,20.1,99.2,19.5z"/>
</g>
<g>
	<path class="st6" d="M38.2,15.4c2-0.1,4.1,0.1,6.1,0.5c2.6,2.5,2.7,5.1,0.4,7.8c-2.1,0.8-4.2,1.1-6.5,0.9
		C38.2,21.6,38.2,18.5,38.2,15.4z M40.3,17.2c3,0,4.2,1.5,3.2,4.4c-0.8,1.1-1.9,1.5-3.2,1.3C40.3,21,40.3,19.1,40.3,17.2z"/>
</g>
<g>
	<path class="st7" d="M48.1,17.8c1.2-0.1,2.5,0,3.7,0.2c0.3,0.1,0.6,0.3,0.9,0.5c0.4,2,0.6,4,0.9,6c-1.4,0-2.8,0.1-4.1,0.2
		c-2.3-0.1-3-1.2-2-3.4c1-0.8,2.2-1.2,3.4-1.3c-0.9-0.7-1.8-0.7-2.8,0C47.2,19.2,47.2,18.5,48.1,17.8z M50.2,21.6
		c0.9-0.1,1.2,0.3,0.7,1c-0.6,0.5-1.2,0.4-1.7-0.2C49.5,22.2,49.8,21.9,50.2,21.6z"/>
</g>
<g>
	<path class="st8" d="M55.6,17.8c1.1,0,2.3,0,3.4,0c0.1,0.7,0,1.3-0.2,2c-0.8-0.6-1.5-0.6-2.2-0.2c0.8,0.5,1.6,1,2.4,1.5
		c0.8,2.3-0.1,3.5-2.6,3.4c-2.1,0.4-2.6-0.4-1.5-2c0.8,0.6,1.6,0.6,2.4,0.2c-0.9-0.5-1.8-1.1-2.6-1.9C54.4,19.7,54.7,18.7,55.6,17.8
		z"/>
</g>
<g>
	<path class="st9" d="M78.4,17.8c4.1-0.6,5.7,1.1,4.9,5.1c-1.9,2-4.1,2.2-6.5,0.7C75.8,21.2,76.3,19.2,78.4,17.8z M79.1,19.5
		c1.9,0,2.5,0.9,1.9,2.8c-0.7,0.9-1.3,0.9-2,0C78.7,21.4,78.8,20.4,79.1,19.5z"/>
</g>
<g>
	<path class="st7" d="M85.2,17.8c1.2-0.1,2.5,0,3.7,0.2c0.3,0.1,0.6,0.3,0.9,0.5c0.4,2,0.6,4,0.9,6c-1.4,0-2.8,0.1-4.1,0.2
		c-2.3-0.1-3-1.2-2-3.4c1-0.8,2.2-1.2,3.4-1.3c-0.9-0.7-1.8-0.7-2.8,0C84.4,19.2,84.4,18.5,85.2,17.8z M87.3,21.6
		c0.9-0.1,1.2,0.3,0.7,1c-0.6,0.5-1.2,0.4-1.7-0.2C86.6,22.2,86.9,21.9,87.3,21.6z"/>
</g>
<g>
	<path class="st10" d="M91.4,18.2c0.8-0.5,1.5-0.4,2.2,0.4c0.6-0.6,1.3-0.8,2.2-0.7c0,0.7,0,1.3,0,2c-0.9-0.2-1.6,0.2-1.9,1
		c-0.2,1.2-0.2,2.5-0.2,3.7c-0.7,0-1.3,0-2,0C91.8,22.5,91.7,20.3,91.4,18.2z"/>
</g>
<g>
	<path class="st11" d="M29.4,17.5c-0.2,1.1-0.4,2-0.7,3c-0.2,0.4-0.6,0.4-1,0.2c0.5-0.5,0.4-0.9-0.4-1.2c-0.2,0.6-0.5,1.1-0.7,1.7
		c-0.4-0.2-0.6-0.4-0.9-0.7c-0.4,0.4-0.6,0.3-0.7-0.4c-0.1,0.2-0.2,0.5-0.4,0.7c-0.4-0.5-0.5-1.1-0.5-1.7c0-0.6,0-1.1,0-1.7
		C26,17.7,27.7,17.7,29.4,17.5z"/>
</g>
<g>
	<path class="st12" d="M20.5,19.9c-0.4,0.2-0.6,0.5-0.7,1c0.1,0.8,0.3,1.4,0.7,2c-0.1,0.4-0.4,0.4-0.7,0c-0.5,1.2-0.3,2.2,0.7,3
		c-0.2,0.4-0.4,0.4-0.7,0c-1.5-2.3-1.9-2.1-1.3,0.7c-0.1,0.2-0.2,0.4-0.4,0.5c-0.5,0.1-0.9,0.1-1.3,0.2c-1.1,0-1.9-0.4-2.8-1
		c-0.5-0.5-1.1-0.8-1.7-1c-0.7-1.8-0.2-3.2,1.3-4.3c1.6-1.1,3.5-1.5,5.4-1.5C19.7,19.5,20.1,19.7,20.5,19.9z"/>
</g>
<g>
	<path class="st13" d="M20.5,19.9c0.5,0,0.9,0,1.3,0c0.5,0.4,0.9,0.7,1.3,1c-0.8,0.8-1.7,1.5-2.8,2c-0.4-0.6-0.6-1.3-0.7-2
		C19.9,20.4,20.1,20.1,20.5,19.9z"/>
</g>
<g>
	<path class="st14" d="M31.8,20.2c0.7,0.7,1,1.6,1,2.8c-0.7,0-1,0.4-1,1c-0.2,0-0.5,0-0.7,0c0.1-0.6,0.1-1,0-1.3
		c-0.2-0.5-0.5-0.9-0.9-1.3c-0.2,0.4-0.4,0.4-0.5,0C30.3,20.8,31,20.4,31.8,20.2z"/>
</g>
<g>
	<path class="st15" d="M29,11c-0.6-0.6-1.3-1.1-2-1.3c-0.5,0.1-1,0.3-1.3,0.7c-0.1,1.5-0.6,2.7-1.5,3.7c-0.3,1.8-0.2,3.5,0.2,5.1
		c0,0.6,0.2,1.2,0.5,1.7c0.1-0.2,0.2-0.5,0.4-0.7c0.1,0.6,0.4,0.7,0.7,0.4c0.2,0.3,0.5,0.5,0.9,0.7c0.2-0.6,0.5-1.1,0.7-1.7
		c0.7,0.3,0.8,0.6,0.4,1.2c0.4,0.2,0.8,0.2,1-0.2c0.8-0.7,1.5-1.3,2.4-1.9c1.5-1,2.9-1.1,4.4-0.2c0.7,0.6,0.8,1.3,0.4,2
		c-0.4-0.4-0.8-0.6-1.3-0.7c-1-0.4-1.9-0.3-2.8,0.4c-0.8,0.2-1.5,0.5-2,1c-0.2,0-0.3,0.1-0.4,0.4c0.5,0.4,1.1,0.8,1.7,1
		c0.1,0.4,0.1,0.8,0,1.3c-0.1,0.5,0,0.9,0.2,1.3c0.4-0.5,0.7-0.5,0.9,0.2c-0.1,0.3-0.2,0.6-0.4,0.9c-0.6,0.1-1.2,0.2-1.7,0.2
		c0.3-0.3,0.6-0.5,1-0.7c-0.5-0.8-0.9-1.7-1.3-2.6c-0.1,1.3-0.6,2.5-1.3,3.6c0.2,0.1,0.5,0.2,0.7,0.4c-0.1,0.1-0.2,0.2-0.4,0.2
		c-0.2,0.1-0.5,0.2-0.7,0.4c0-0.1,0-0.2,0-0.4C28,27,27.8,26.9,27.5,27c0.2-1.6-0.5-2-2-1.3c-0.5-0.5-0.9-1.1-1.2-1.7
		c-0.2,0.2-0.5,0.4-0.9,0.5c0.5,0.1,0.8,0.4,1,0.9c-0.4,0.2-0.7,0.3-1,0.4c0.2,0.4,0.5,0.7,0.7,1c-0.2,0-0.5,0-0.7,0
		c-0.5-1-0.9-2-1.3-3c-0.5,0.1-0.8,0.4-1,0.9c0.5,0.5,0.7,1.2,0.7,1.9c-0.4,0-0.7-0.1-1-0.4c-1-0.8-1.2-1.9-0.7-3
		c0.3,0.4,0.5,0.4,0.7,0c1.1-0.5,1.9-1.2,2.8-2c0.2-0.1,0.4-0.4,0.4-0.7c-0.6-2.7-0.8-5.4-0.5-8.2c0.4-0.6,0.7-1.1,1-1.7
		c0.2-1.2,0.6-2.3,1.2-3.2C27.7,7.2,28.9,8.5,29,11z"/>
</g>
<g>
	<path class="st16" d="M34.5,19.9c0.1,1.7-0.2,3.3-1,4.7c-0.4,0-0.7,0-1,0c0.2-0.5,0.3-1.1,0.4-1.7c0-1.1-0.4-2-1-2.8
		C32.6,19.6,33.5,19.5,34.5,19.9z"/>
</g>
<g>
	<path class="st17" d="M21.9,19.9c-0.5,0-0.9,0-1.3,0c-0.4-0.2-0.8-0.4-1.3-0.4c-2,0-3.8,0.5-5.4,1.5c-1.6,1.1-2,2.5-1.3,4.3
		c-2.1-0.3-3.2-1.6-3-3.7c3-3,6.6-4,10.9-3.2C20.9,18.7,21.5,19.2,21.9,19.9z"/>
</g>
<g>
	<path class="st18" d="M29.7,21.2c0.1,0.4,0.3,0.4,0.5,0c0.4,0.4,0.6,0.9,0.9,1.3c-0.6-0.2-1.2-0.6-1.7-1
		C29.4,21.4,29.6,21.3,29.7,21.2z"/>
</g>
<g>
	<path class="st19" d="M34.5,19.9c0.6,0.1,1,0.3,1.3,0.7c0,1.4-0.2,2.8-0.5,4.1c-0.2,0.5-0.6,0.9-1.2,1c-0.2-0.4-0.4-0.8-0.7-1
		C34.2,23.2,34.6,21.6,34.5,19.9z"/>
</g>
<g>
	<path class="st20" d="M23.2,26.7c-0.6-0.1-1.2-0.2-1.7-0.4c0-0.7-0.2-1.3-0.7-1.9c0.2-0.5,0.5-0.7,1-0.9
		C22.4,24.7,22.8,25.7,23.2,26.7z"/>
</g>
<g>
	<path class="st21" d="M27.7,23.3c0.9,0.6,0.8,1.1-0.2,1.3C27.5,24.2,27.5,23.8,27.7,23.3z"/>
</g>
<g>
	<path class="st22" d="M32.8,22.9c-0.1,0.6-0.2,1.2-0.4,1.7c-0.4-0.1-0.6-0.4-0.7-0.7C31.8,23.3,32.1,22.9,32.8,22.9z"/>
</g>
<g>
	<path class="st23" d="M31.1,24c0.2,0,0.5,0,0.7,0c0.1,0.4,0.4,0.6,0.7,0.7c0.2,0.4,0.5,0.7,0.7,1c-0.2,0.2-0.5,0.5-0.7,0.7
		c-0.2,0-0.5,0-0.7,0c0.1-0.2,0.2-0.5,0.4-0.9c-0.2-0.6-0.5-0.7-0.9-0.2C31.1,24.9,31,24.5,31.1,24z"/>
</g>
<g>
	<path class="st24" d="M12.3,25.3c0.6,0.2,1.2,0.5,1.7,1C13.2,26.4,12.6,26.1,12.3,25.3z"/>
</g>
<g>
	<path class="st25" d="M19.8,26c-0.4,0.2-0.7,0.5-1,0.7c-0.1,0-0.2,0-0.4,0C18,23.9,18.4,23.7,19.8,26z"/>
</g>
<g>
	<path class="st26" d="M34.1,25.7c-0.1,0.6-0.3,0.8-0.7,0.4C33.6,25.7,33.8,25.6,34.1,25.7z"/>
</g>
<g>
	<path class="st27" d="M27.3,27c-1.2,0.2-2.2-0.1-3-0.9c0.2-0.4,0.6-0.5,1-0.5C26.9,25,27.6,25.5,27.3,27z"/>
</g>
<g>
	<path class="st28" d="M31.8,26.4c0.2,0,0.5,0,0.7,0c0,0.4-0.1,0.7-0.4,1c-1.1-0.2-2.2,0.1-3.2,0.7c-0.2-0.2-0.2-0.4-0.2-0.7
		c0.2,0,0.2-0.1,0.4-0.2c-0.2-0.1-0.5-0.2-0.7-0.4c0.8-1.1,1.2-2.2,1.3-3.6c0.4,0.9,0.9,1.7,1.3,2.6c-0.4,0.1-0.8,0.4-1,0.7
		C30.6,26.5,31.2,26.4,31.8,26.4z"/>
</g>
<g>
	<path class="st29" d="M25.3,25.7c-0.4,0-0.8,0.2-1,0.5c0.9,0.8,1.9,1.1,3,0.9c0.4-0.1,0.6,0.1,0.7,0.4c-1.5,0.6-2.9,0.4-4.1-0.7
		c-0.2-0.4-0.5-0.7-0.7-1c0.3-0.1,0.6-0.2,1-0.4c-0.2-0.5-0.5-0.7-1-0.9c0.3-0.1,0.6-0.3,0.9-0.5C24.4,24.6,24.8,25.2,25.3,25.7z"/>
</g>
<g>
	<path class="st30" d="M19.8,26c0.3,0.4,0.5,0.4,0.7,0c0.3,0.2,0.6,0.3,1,0.4c0.5,0.2,1.1,0.3,1.7,0.4c0,0.4-0.2,0.7-0.7,0.9
		c0.9,0,1.3,0.4,1.2,1.2c-0.7,0-1.5-0.1-2.2-0.4c-0.2-0.1-0.5-0.2-0.7-0.4c0.1-0.4,0.4-0.6,0.7-0.7c-0.6-0.6-1.5-0.8-2.4-0.7
		c-0.1,0-0.2,0-0.4,0C19.1,26.5,19.5,26.3,19.8,26z"/>
</g>
<g>
	<path class="st31" d="M21.5,27.4c0.6,0.1,0.8,0.3,0.4,0.7C21.6,27.9,21.5,27.7,21.5,27.4z"/>
</g>
<g>
	<path class="st32" d="M32.1,27.4c-0.4,0.9-0.8,1.1-1.2,0.4c-0.2,0.4-0.2,0.6-0.2,1c-0.5,0-0.9-0.1-1.3-0.4C29,28.9,29,29.5,29,30.1
		c-0.1,0-0.2,0-0.4,0c-0.1-0.8-0.4-1.1-1-0.7c-0.4-0.3-0.4-0.6-0.2-1c0.1,0.1,0.2,0.2,0.4,0.4c0.2-0.4,0.2-0.6,0.2-1
		c0.2-0.1,0.5-0.2,0.7-0.4c-0.1,0.2,0,0.5,0.2,0.7C29.9,27.4,31,27.2,32.1,27.4z"/>
</g>
<g>
	<path class="st33" d="M23.2,26.7c0.2,0,0.5,0,0.7,0c1.2,1,2.6,1.2,4.1,0.7c0,0.1,0,0.2,0,0.4c0.1,0.4,0,0.7-0.2,1
		c-0.1-0.1-0.2-0.2-0.4-0.4c-0.2,0.4-0.2,0.7,0.2,1c0.6-0.4,1-0.2,1,0.7c-1.3,0-2.8,0-4.1,0c-0.1-1.6-0.4-1.5-0.7,0.4
		c-0.7,0.1-1.5,0.1-2.4,0c0-0.7,0-1.3,0-2c0.8,0.2,1.5,0.4,2.2,0.4c0.1-0.8-0.3-1.2-1.2-1.2C23,27.4,23.2,27.1,23.2,26.7z"/>
</g>
<g>
	<path class="st34" d="M25.3,28.4c0.5,0.1,1.1,0.2,1.7,0.4c-0.6,0.6-1.2,0.8-1.9,0.7C24.9,29.1,25,28.7,25.3,28.4z"/>
</g>
<g>
	<path class="st35" d="M29,30.1c-0.1-0.6,0-1.2,0.4-1.7c0.4,0.2,0.9,0.4,1.3,0.4c-0.1-0.4,0-0.7,0.2-1c0.4,0.7,0.8,0.6,1.2-0.4
		c0.4,0,0.7-0.1,1-0.4c0.4,0.4,0.4,0.9,0.2,1.3c-0.8,0.8-1.5,1.5-2.2,2.2C30.3,30.9,29.6,30.7,29,30.1z"/>
</g>
<g>
	<path class="st36" d="M24.6,30.1c0,0.4,0,0.7,0,1c-0.1,0-0.2,0-0.4,0c-0.1,0-0.2,0-0.4,0c0-0.2,0-0.5,0-0.7
		C24.2,28.6,24.5,28.4,24.6,30.1z"/>
</g>
<g>
	<path class="st37" d="M24.6,30.1c1.3,0,2.8,0,4.1,0c0.1,0,0.2,0,0.4,0c0.1,0.6,0.5,1.2,1,1.5c-0.4,0.3-0.9,0.5-1.3,0.5
		c-1.5-0.1-2.9-0.4-4.1-1C24.6,30.8,24.6,30.4,24.6,30.1z"/>
</g>
<g>
	<path class="st38" d="M20.8,28.1c0.2,0.1,0.5,0.2,0.7,0.4c0,0.7,0,1.3,0,2c0.9,0.1,1.6,0.1,2.4,0c0,0.2,0,0.5,0,0.7
		c-0.2,1.1-0.6,2-1.3,2.9c-1.6,0.3-3.2,0.2-4.7-0.2c-0.4-0.4-0.4-0.9-0.2-1.3c0.7-1.1,1.3-2.2,1.7-3.4
		C19.7,28.6,20.3,28.2,20.8,28.1z"/>
</g>
<g>
	<path class="st39" d="M24.3,31.1c0.1,0,0.2,0,0.4,0c1.2,0.6,2.6,0.9,4.1,1c-1,0.8-2.2,1.3-3.4,1.7c-0.4-0.1-0.7-0.4-0.9-0.7
		C24.3,32.5,24.2,31.8,24.3,31.1z"/>
</g>
</svg>
