<?xml version="1.0" encoding="UTF-8"?>
<!DOCTYPE svg PUBLIC "-//W3C//DTD SVG 1.1//EN" "http://www.w3.org/Graphics/SVG/1.1/DTD/svg11.dtd">
<svg xmlns="http://www.w3.org/2000/svg" version="1.1" width="192px" height="59px" style="shape-rendering:geometricPrecision; text-rendering:geometricPrecision; image-rendering:optimizeQuality; fill-rule:evenodd; clip-rule:evenodd" xmlns:xlink="http://www.w3.org/1999/xlink">
<g><path style="opacity:0.999" fill="#212121" d="M 49.5,27.5 C 48.0387,28.6857 46.7054,28.6857 45.5,27.5C 46.4972,27.5299 47.1639,27.0299 47.5,26C 44.5925,13.9283 36.9258,7.42831 24.5,6.5C 7.89716,9.01857 0.397158,18.6852 2,35.5C 4.1566,42.1581 8.32327,47.1581 14.5,50.5C 16.7451,47.6803 18.7451,44.6803 20.5,41.5C 22.1959,39.871 23.1959,40.2043 23.5,42.5C 20.7933,45.2466 19.1266,48.5799 18.5,52.5C 22.0071,53.0065 25.1737,52.3398 28,50.5C 30.6514,52.6357 33.1514,52.3023 35.5,49.5C 36.8333,49.5 37.5,48.8333 37.5,47.5C 37.8333,47.5 38.1667,47.5 38.5,47.5C 40.4513,46.7177 41.9513,45.3844 43,43.5C 43.6917,42.5632 43.525,41.8966 42.5,41.5C 43.4054,40.0357 43.4054,38.7024 42.5,37.5C 43.7498,37.5774 44.5831,38.244 45,39.5C 45.9853,37.8251 46.8186,36.1585 47.5,34.5C 47.369,35.2389 47.5357,35.9056 48,36.5C 48.2321,35.2625 48.7321,34.2625 49.5,33.5C 48.1502,43.3596 42.8168,50.1929 33.5,54C 17.4053,57.7842 6.07194,52.2842 -0.5,37.5C -0.5,32.5 -0.5,27.5 -0.5,22.5C 8.13661,4.34308 21.4699,-0.15692 39.5,9C 45.8627,13.5604 49.196,19.7271 49.5,27.5 Z"/></g>
<g><path style="opacity:1" fill="#bed99e" d="M 45.5,27.5 C 41.9966,27.1289 38.9966,28.1289 36.5,30.5C 37.6437,26.3522 37.6437,22.3522 36.5,18.5C 36.5,17.5 36.5,16.5 36.5,15.5C 36.0312,11.1627 33.8646,9.496 30,10.5C 29.0192,14.2804 27.8525,17.9471 26.5,21.5C 26.5676,24.4381 27.2342,27.1048 28.5,29.5C 28.5,29.8333 28.5,30.1667 28.5,30.5C 28.6716,31.4916 28.3382,32.1583 27.5,32.5C 26.8333,31.1667 25.8333,30.1667 24.5,29.5C 24.3893,28.8826 24.056,28.3826 23.5,28C 19.5,27.3333 15.5,27.3333 11.5,28C 7.50904,29.6206 5.6757,32.4539 6,36.5C 7.11268,37.305 8.27935,37.9717 9.5,38.5C 12.4182,40.6934 15.7515,41.6934 19.5,41.5C 19.8333,41.5 20.1667,41.5 20.5,41.5C 18.7451,44.6803 16.7451,47.6803 14.5,50.5C 8.32327,47.1581 4.1566,42.1581 2,35.5C 0.397158,18.6852 7.89716,9.01857 24.5,6.5C 36.9258,7.42831 44.5925,13.9283 47.5,26C 47.1639,27.0299 46.4972,27.5299 45.5,27.5 Z"/></g>
<g><path style="opacity:1" fill="#181918" d="M 36.5,15.5 C 34.6612,14.2475 32.8278,14.2475 31,15.5C 28.8986,19.8743 28.0653,24.5409 28.5,29.5C 27.2342,27.1048 26.5676,24.4381 26.5,21.5C 27.8525,17.9471 29.0192,14.2804 30,10.5C 33.8646,9.496 36.0312,11.1627 36.5,15.5 Z"/></g>
<g><path style="opacity:1" fill="#897cc0" d="M 36.5,15.5 C 36.5,16.5 36.5,17.5 36.5,18.5C 36.5,20.8333 36.5,23.1667 36.5,25.5C 34.1667,25.5 31.8333,25.5 29.5,25.5C 29.5,27.1667 29.5,28.8333 29.5,30.5C 29.1667,30.5 28.8333,30.5 28.5,30.5C 28.5,30.1667 28.5,29.8333 28.5,29.5C 28.0653,24.5409 28.8986,19.8743 31,15.5C 32.8278,14.2475 34.6612,14.2475 36.5,15.5 Z"/></g>
<g><path style="opacity:0.981" fill="#fdfefd" d="M 58.5,15.5 C 60.5,15.5 62.5,15.5 64.5,15.5C 64.5,18.8333 64.5,22.1667 64.5,25.5C 67.8333,25.5 71.1667,25.5 74.5,25.5C 74.5,22.1667 74.5,18.8333 74.5,15.5C 76.5,15.5 78.5,15.5 80.5,15.5C 80.5,24.5 80.5,33.5 80.5,42.5C 78.5,42.5 76.5,42.5 74.5,42.5C 74.5,38.8333 74.5,35.1667 74.5,31.5C 71.1667,31.5 67.8333,31.5 64.5,31.5C 64.5,35.1667 64.5,38.8333 64.5,42.5C 62.5,42.5 60.5,42.5 58.5,42.5C 58.5,33.5 58.5,24.5 58.5,15.5 Z"/></g>
<g><path style="opacity:0.865" fill="#fdfefd" d="M 92.5,15.5 C 108.844,14.6791 114.344,22.0125 109,37.5C 104.509,42.2591 99.0092,43.7591 92.5,42C 84.3449,36.5234 82.5115,29.3568 87,20.5C 88.7297,18.5981 90.563,16.9314 92.5,15.5 Z M 96.5,20.5 C 101.511,20.9654 104.177,23.7987 104.5,29C 104.112,33.3091 101.945,36.1424 98,37.5C 91.6022,33.9605 90.2689,28.9605 94,22.5C 94.9947,21.9341 95.828,21.2674 96.5,20.5 Z"/></g>
<g><path style="opacity:0.868" fill="#fdfefd" d="M 115.5,15.5 C 118.777,15.2161 121.943,15.5495 125,16.5C 126.644,21.077 127.978,25.7436 129,30.5C 130.965,25.991 132.632,21.3243 134,16.5C 137.057,15.5495 140.223,15.2161 143.5,15.5C 143.626,24.5094 143.959,33.5094 144.5,42.5C 142.167,42.5 139.833,42.5 137.5,42.5C 137.666,36.4908 137.499,30.4908 137,24.5C 135.359,30.4218 133.526,36.2551 131.5,42C 129.559,42.7429 127.726,42.5762 126,41.5C 124.667,36.8333 123.333,32.1667 122,27.5C 120.84,32.4342 120.34,37.4342 120.5,42.5C 118.5,42.5 116.5,42.5 114.5,42.5C 114.786,33.4978 115.119,24.4978 115.5,15.5 Z"/></g>
<g><path style="opacity:0.992" fill="#fdfefd" d="M 148.5,15.5 C 154.167,15.5 159.833,15.5 165.5,15.5C 165.5,17.1667 165.5,18.8333 165.5,20.5C 161.833,20.5 158.167,20.5 154.5,20.5C 154.5,22.5 154.5,24.5 154.5,26.5C 157.833,26.5 161.167,26.5 164.5,26.5C 164.5,28.1667 164.5,29.8333 164.5,31.5C 161.167,31.5 157.833,31.5 154.5,31.5C 154.5,33.5 154.5,35.5 154.5,37.5C 158.167,37.5 161.833,37.5 165.5,37.5C 165.5,39.1667 165.5,40.8333 165.5,42.5C 159.833,42.5 154.167,42.5 148.5,42.5C 148.5,33.5 148.5,24.5 148.5,15.5 Z"/></g>
<g><path style="opacity:1" fill="#a399cd" d="M 36.5,18.5 C 37.6437,22.3522 37.6437,26.3522 36.5,30.5C 34.5717,30.2172 32.2384,30.2172 29.5,30.5C 29.5,28.8333 29.5,27.1667 29.5,25.5C 31.8333,25.5 34.1667,25.5 36.5,25.5C 36.5,23.1667 36.5,20.8333 36.5,18.5 Z"/></g>
<g><path style="opacity:1" fill="#121212" d="M 24.5,29.5 C 19.3549,29.2851 14.6883,30.6185 10.5,33.5C 9.54811,35.0453 9.21478,36.712 9.5,38.5C 8.27935,37.9717 7.11268,37.305 6,36.5C 5.6757,32.4539 7.50904,29.6206 11.5,28C 15.5,27.3333 19.5,27.3333 23.5,28C 24.056,28.3826 24.3893,28.8826 24.5,29.5 Z"/></g>
<g><path style="opacity:1" fill="#8b7fbf" d="M 24.5,29.5 C 25.8333,30.1667 26.8333,31.1667 27.5,32.5C 24.4323,33.5673 22.4323,35.5673 21.5,38.5C 20.8826,38.3893 20.3826,38.056 20,37.5C 19.51,38.7932 19.3433,40.1266 19.5,41.5C 15.7515,41.6934 12.4182,40.6934 9.5,38.5C 9.21478,36.712 9.54811,35.0453 10.5,33.5C 14.6883,30.6185 19.3549,29.2851 24.5,29.5 Z"/></g>
<g><path style="opacity:1" fill="#0e0e0f" d="M 45.5,27.5 C 46.7054,28.6857 48.0387,28.6857 49.5,27.5C 49.5,29.5 49.5,31.5 49.5,33.5C 48.7321,34.2625 48.2321,35.2625 48,36.5C 47.5357,35.9056 47.369,35.2389 47.5,34.5C 46.3137,29.1049 43.3137,28.1049 38.5,31.5C 37.3296,32.6939 37.663,33.3605 39.5,33.5C 39.7678,35.099 39.4345,36.4324 38.5,37.5C 38.5,37.1667 38.5,36.8333 38.5,36.5C 38.44,35.9569 38.1067,35.6236 37.5,35.5C 36.8333,36.5 36.1667,37.5 35.5,38.5C 35.7948,37.1745 35.2948,35.8412 34,34.5C 33.51,35.7932 33.3433,37.1266 33.5,38.5C 33.1667,38.5 32.8333,38.5 32.5,38.5C 30.857,38.5198 29.5237,37.8532 28.5,36.5C 27.1973,37.7178 26.1973,37.3845 25.5,35.5C 24.3578,36.8262 23.0245,37.8262 21.5,38.5C 22.4323,35.5673 24.4323,33.5673 27.5,32.5C 28.3382,32.1583 28.6716,31.4916 28.5,30.5C 28.8333,30.5 29.1667,30.5 29.5,30.5C 32.2384,30.2172 34.5717,30.2172 36.5,30.5C 38.9966,28.1289 41.9966,27.1289 45.5,27.5 Z"/></g>
<g><path style="opacity:1" fill="#a9a0d0" d="M 47.5,34.5 C 46.8186,36.1585 45.9853,37.8251 45,39.5C 44.5831,38.244 43.7498,37.5774 42.5,37.5C 41.8776,35.8784 40.8776,34.5451 39.5,33.5C 37.663,33.3605 37.3296,32.6939 38.5,31.5C 43.3137,28.1049 46.3137,29.1049 47.5,34.5 Z"/></g>
<g><path style="opacity:1" fill="#5e5b6c" d="M 39.5,33.5 C 40.8776,34.5451 41.8776,35.8784 42.5,37.5C 43.4054,38.7024 43.4054,40.0357 42.5,41.5C 41.791,42.404 40.791,42.7373 39.5,42.5C 39.9175,41.7784 40.5842,41.2784 41.5,41C 40.5,40.6667 39.5,40.3333 38.5,40C 39.5981,39.2303 39.5981,38.397 38.5,37.5C 39.4345,36.4324 39.7678,35.099 39.5,33.5 Z"/></g>
<g><path style="opacity:1" fill="#bab8c6" d="M 38.5,36.5 C 38.5,36.8333 38.5,37.1667 38.5,37.5C 39.5981,38.397 39.5981,39.2303 38.5,40C 39.5,40.3333 40.5,40.6667 41.5,41C 40.5842,41.2784 39.9175,41.7784 39.5,42.5C 37.8967,42.6882 36.5634,42.1882 35.5,41C 36.7811,39.5913 37.7811,38.0913 38.5,36.5 Z"/></g>
<g><path style="opacity:1" fill="#55535f" d="M 38.5,36.5 C 37.7811,38.0913 36.7811,39.5913 35.5,41C 36.5634,42.1882 37.8967,42.6882 39.5,42.5C 39.6309,43.3764 39.2975,44.0431 38.5,44.5C 37.6043,43.4937 36.9377,43.4937 36.5,44.5C 37.1925,45.5178 37.8592,46.5178 38.5,47.5C 38.1667,47.5 37.8333,47.5 37.5,47.5C 35.7253,45.4158 33.3919,44.2491 30.5,44C 32.1667,43.6667 33.8333,43.3333 35.5,43C 33.1093,42.7132 30.7759,42.2132 28.5,41.5C 27.5748,42.3569 26.9081,43.3569 26.5,44.5C 25.5,43.8333 24.5,43.1667 23.5,42.5C 23.1959,40.2043 22.1959,39.871 20.5,41.5C 20.1667,41.5 19.8333,41.5 19.5,41.5C 19.3433,40.1266 19.51,38.7932 20,37.5C 20.3826,38.056 20.8826,38.3893 21.5,38.5C 23.0245,37.8262 24.3578,36.8262 25.5,35.5C 26.1973,37.3845 27.1973,37.7178 28.5,36.5C 29.5237,37.8532 30.857,38.5198 32.5,38.5C 31.7375,39.2679 30.7375,39.7679 29.5,40C 31.1667,42 32.8333,42 34.5,40C 33.944,39.6174 33.6107,39.1174 33.5,38.5C 33.3433,37.1266 33.51,35.7932 34,34.5C 35.2948,35.8412 35.7948,37.1745 35.5,38.5C 36.1667,37.5 36.8333,36.5 37.5,35.5C 38.1067,35.6236 38.44,35.9569 38.5,36.5 Z"/></g>
<g><path style="opacity:1" fill="#939296" d="M 32.5,38.5 C 32.8333,38.5 33.1667,38.5 33.5,38.5C 33.6107,39.1174 33.944,39.6174 34.5,40C 32.8333,42 31.1667,42 29.5,40C 30.7375,39.7679 31.7375,39.2679 32.5,38.5 Z"/></g>
<g><path style="opacity:1" fill="#c3bce0" d="M 42.5,41.5 C 43.525,41.8966 43.6917,42.5632 43,43.5C 41.9513,45.3844 40.4513,46.7177 38.5,47.5C 37.8592,46.5178 37.1925,45.5178 36.5,44.5C 36.9377,43.4937 37.6043,43.4937 38.5,44.5C 39.2975,44.0431 39.6309,43.3764 39.5,42.5C 40.791,42.7373 41.791,42.404 42.5,41.5 Z"/></g>
<g><path style="opacity:1" fill="#b5add3" d="M 37.5,47.5 C 37.5,48.8333 36.8333,49.5 35.5,49.5C 33.7033,49.0651 31.7033,49.0651 29.5,49.5C 30.0838,46.715 29.0838,45.0483 26.5,44.5C 26.9081,43.3569 27.5748,42.3569 28.5,41.5C 30.7759,42.2132 33.1093,42.7132 35.5,43C 33.8333,43.3333 32.1667,43.6667 30.5,44C 33.3919,44.2491 35.7253,45.4158 37.5,47.5 Z"/></g>
<g><path style="opacity:1" fill="#9d93c9" d="M 23.5,42.5 C 24.5,43.1667 25.5,43.8333 26.5,44.5C 29.0838,45.0483 30.0838,46.715 29.5,49.5C 31.7033,49.0651 33.7033,49.0651 35.5,49.5C 33.1514,52.3023 30.6514,52.6357 28,50.5C 25.1737,52.3398 22.0071,53.0065 18.5,52.5C 19.1266,48.5799 20.7933,45.2466 23.5,42.5 Z"/></g>
</svg>
